<?xml version="1.0" encoding="UTF-8"?>
<svg t="1574954736664" class="icon" viewBox="0 0 1024 1024" version="1.1" xmlns="http://www.w3.org/2000/svg" p-id="3693" width="200" height="200"><path d="M512.5632 913.3056a28.8768 28.8768 0 0 1-20.48-48.896l462.9504-477.5936-224.6656-224.4096H281.6a28.8768 28.8768 0 0 1 0-57.7024h460.8a28.7744 28.7744 0 0 1 20.48 8.448l252.9792 252.9792a28.8256 28.8256 0 0 1 0.3584 40.448l-482.4064 497.92a28.7744 28.7744 0 0 1-21.0944 8.8064z" fill="#333333" p-id="3694"></path><path d="M511.5904 913.3056a28.7744 28.7744 0 0 1-20.48-8.8064L8.1408 406.5792a28.8768 28.8768 0 0 1 0-40.448L261.4272 113.152a28.8256 28.8256 0 0 1 40.96 40.96L69.3248 386.816 532.48 864.4096a28.8256 28.8256 0 0 1-20.48 48.896z" fill="#333333" p-id="3695"></path><path d="M719.9232 397.7216a28.8256 28.8256 0 0 0-40.96-1.1264L512 563.8144 344.7808 396.5952a28.928 28.928 0 0 0-40.96 40.96l185.344 185.344a28.672 28.672 0 0 0 22.5792 10.5984 28.928 28.928 0 0 0 20.8896-8.7552c0.6144-0.6656 1.0752-1.3824 1.6384-2.0992l185.3952-185.344a28.8256 28.8256 0 0 0 0.256-39.5776z" fill="#00B65F" p-id="3696"></path></svg>